<svg width="24" height="24" viewBox="0 0 24 24" fill="none" xmlns="http://www.w3.org/2000/svg">
<path d="M4.99728 7.24805V8.74867" stroke="white" stroke-linecap="round" stroke-linejoin="round"/>
<path d="M8.49826 18.002V21.0032" stroke="white" stroke-linecap="round" stroke-linejoin="round"/>
<path fill-rule="evenodd" clip-rule="evenodd" d="M9.99943 11.9994V7.99776C9.99943 5.7877 8.20782 3.99609 5.99776 3.99609H5.57859C5.19365 3.99609 4.81122 4.05818 4.44612 4.18017V4.18017C2.98296 4.66737 1.99595 6.03645 1.9961 7.57859V8.41693C1.99465 9.96018 2.98191 11.3308 4.44612 11.8184V11.8184C4.81139 11.9393 5.19381 12.0005 5.57859 11.9994H6.49797C6.77423 11.9994 6.99818 12.2234 6.99818 12.4996V17.0015C6.99818 17.554 7.44608 18.0019 7.9986 18.0019H8.99901C9.55153 18.0019 9.99943 17.554 9.99943 17.0015V11.9994Z" stroke="white" stroke-linecap="round" stroke-linejoin="round"/>
<path d="M15.5012 18.002V21.0032" stroke="white" stroke-linecap="round" stroke-linejoin="round"/>
<path fill-rule="evenodd" clip-rule="evenodd" d="M14.001 17.0015C14.001 17.5541 14.4489 18.002 15.0014 18.002H16.0018C16.5543 18.002 17.0022 17.5541 17.0022 17.0015V12.4997C17.0022 12.2234 17.2262 11.9995 17.5024 11.9995H18.4218C18.8068 11.9995 19.1892 11.9374 19.5543 11.8154V11.8154C21.0174 11.3282 22.0045 9.9591 22.0043 8.41696V7.57861C22.0058 6.03537 21.0185 4.66474 19.5543 4.17719V4.17719C19.189 4.05623 18.8066 3.99508 18.4218 3.99611H18.0026C15.7926 3.99611 14.001 5.78773 14.001 7.99779V17.0015Z" stroke="white" stroke-linecap="round" stroke-linejoin="round"/>
<path d="M19.0031 8.74867V7.24805" stroke="white" stroke-linecap="round" stroke-linejoin="round"/>
</svg>
