<svg width="24" height="24" viewBox="0 0 24 24" fill="none" xmlns="http://www.w3.org/2000/svg">
<path d="M5.96905 6.625L5.30205 3.625H3.37305" stroke="white" stroke-width="1.2" stroke-linecap="round" stroke-linejoin="round"/>
<path fill-rule="evenodd" clip-rule="evenodd" d="M7.73075 14.835L5.96875 6.625H18.6268C19.2638 6.625 19.7378 7.212 19.6048 7.835L18.1028 14.835C18.0038 15.296 17.5968 15.625 17.1248 15.625H8.70775C8.23675 15.625 7.82975 15.296 7.73075 14.835Z" stroke="white" stroke-width="1.2" stroke-linecap="round" stroke-linejoin="round"/>
<path d="M7.85554 19.5C7.84753 18.672 8.52041 18 9.3495 18C10.1826 18 10.8555 18.672 10.8555 19.5C10.8555 20.328 10.1826 21 9.3535 21C8.52442 21 7.85153 20.328 7.85554 19.5Z" stroke="white" stroke-width="1.2" stroke-linecap="round" stroke-linejoin="round"/>
<path d="M14.6055 19.5C14.5975 18.672 15.2704 18 16.0995 18C16.9326 18 17.6055 18.672 17.6055 19.5C17.6055 20.328 16.9326 21 16.1035 21C15.2744 21 14.6015 20.328 14.6055 19.5Z" stroke="white" stroke-width="1.2" stroke-linecap="round" stroke-linejoin="round"/>
</svg>
