<svg width="54" height="54" viewBox="0 0 54 54" fill="none" xmlns="http://www.w3.org/2000/svg">
<path fill-rule="evenodd" clip-rule="evenodd" d="M31.5 45H42.75C45.2363 45 47.25 42.9863 47.25 40.5V13.5C47.25 11.0137 45.2363 9 42.75 9H11.25C8.76375 9 6.75 11.0137 6.75 13.5V40.5C6.75 42.9863 8.76375 45 11.25 45H22.5L27 49.5L31.5 45Z" stroke="white" stroke-width="1.5" stroke-linecap="round" stroke-linejoin="round"/>
<path d="M27.3982 27.1634C27.6187 27.3839 27.6187 27.7394 27.3982 27.9599C27.1777 28.1804 26.8223 28.1804 26.6018 27.9599C26.3813 27.7394 26.3813 27.3839 26.6018 27.1634C26.8223 26.9452 27.1777 26.9452 27.3982 27.1634" stroke="white" stroke-linecap="round" stroke-linejoin="round"/>
<path d="M36.3982 27.1634C36.6187 27.3839 36.6187 27.7394 36.3982 27.9599C36.1777 28.1804 35.8223 28.1804 35.6018 27.9599C35.3813 27.7394 35.3813 27.3839 35.6018 27.1634C35.8223 26.9452 36.1777 26.9452 36.3982 27.1634" stroke="white" stroke-width="1.5" stroke-linecap="round" stroke-linejoin="round"/>
<path d="M18.3982 27.1634C18.6187 27.3839 18.6187 27.7394 18.3982 27.9599C18.1777 28.1804 17.8223 28.1804 17.6018 27.9599C17.3813 27.7394 17.3813 27.3839 17.6018 27.1634C17.8223 26.9452 18.1777 26.9452 18.3982 27.1634" stroke="white" stroke-width="1.5" stroke-linecap="round" stroke-linejoin="round"/>
</svg>
