<svg width="24" height="24" viewBox="0 0 24 24" fill="none" xmlns="http://www.w3.org/2000/svg">
<path d="M6 15H7" stroke="white" stroke-linecap="round" stroke-linejoin="round"/>
<path d="M17 7H18" stroke="white" stroke-linecap="round" stroke-linejoin="round"/>
<path d="M10.2323 12.7678C9.60073 12.1363 9.35407 11.2157 9.58524 10.353C9.81641 9.49028 10.4903 8.81641 11.353 8.58524C12.2157 8.35407 13.1363 8.60073 13.7678 9.23229" stroke="white" stroke-linecap="round" stroke-linejoin="round"/>
<path d="M8 18H6C4.34315 18 3 16.6569 3 15V7C3 5.34315 4.34315 4 6 4H18C19.6569 4 21 5.34315 21 7V13" stroke="white" stroke-linecap="round" stroke-linejoin="round"/>
<path d="M21 21V18.3525C21 17.3722 20.2894 16.5364 19.3219 16.3786L17 16" stroke="white" stroke-linecap="round" stroke-linejoin="round"/>
<path d="M12.4381 21L11.2375 19.1988C10.8636 18.6379 10.9376 17.891 11.4143 17.4143V17.4143C11.6795 17.149 12.0393 17 12.4144 17C12.7895 17 13.1493 17.149 13.4145 17.4143L14 17.9998" stroke="white" stroke-linecap="round" stroke-linejoin="round"/>
<path d="M17 16V13.5C17 12.6716 16.3284 12 15.5 12V12C14.6716 12 14 12.6716 14 13.5V18" stroke="white" stroke-linecap="round" stroke-linejoin="round"/>
</svg>
