<svg width="24" height="24" viewBox="0 0 24 24" fill="none" xmlns="http://www.w3.org/2000/svg">
<path fill-rule="evenodd" clip-rule="evenodd" d="M3.00005 5.44999C2.69658 5.44999 2.45005 5.69652 2.45005 5.99999V8.72264C3.67651 9.35348 4.45005 10.6175 4.45005 12C4.45005 13.3822 3.67769 14.6464 2.45005 15.2773V18C2.45005 18.3035 2.69658 18.55 3.00005 18.55H21C21.3035 18.55 21.55 18.3035 21.55 18V15.2778C20.3227 14.647 19.55 13.3815 19.55 12C19.55 10.6243 20.3163 9.36351 21.537 8.72998C21.5373 8.72983 21.5376 8.72968 21.5379 8.72952L21.55 8.72315V5.99999C21.55 5.69652 21.3035 5.44999 21 5.44999H3.00005ZM2.21107 14.894L2.00995 14.4914C2.95432 14.0197 3.55005 13.0556 3.55005 12C3.55005 10.9446 2.95349 9.98032 2.0098 9.50848L2.21104 9.10601L2.00856 9.50785C1.72881 9.3669 1.55005 9.08008 1.55005 8.76399V5.99999C1.55005 5.19946 2.19952 4.54999 3.00005 4.54999H21C21.8006 4.54999 22.45 5.19946 22.45 5.99999V8.76399C22.45 9.07873 22.2728 9.36446 21.9951 9.50605L21.9535 9.52779L21.9522 9.52845C21.0294 10.0071 20.45 10.96 20.45 12C20.45 13.0488 21.0392 14.0089 21.9734 14.4835C21.9795 14.4862 21.9855 14.4891 21.9915 14.4921C22.2713 14.6331 22.45 14.9199 22.45 15.236V18C22.45 18.8005 21.8006 19.45 21 19.45H3.00005C2.19952 19.45 1.55005 18.8005 1.55005 18V15.236C1.55005 14.9199 1.72881 14.6331 2.00856 14.4921L2.21107 14.894Z" fill="#323232"/>
<path fill-rule="evenodd" clip-rule="evenodd" d="M14.7482 9.2518C14.9239 9.42753 14.9239 9.71246 14.7482 9.88819L9.74818 14.8882C9.57244 15.0639 9.28752 15.0639 9.11178 14.8882C8.93605 14.7125 8.93605 14.4275 9.11178 14.2518L14.1118 9.2518C14.2875 9.07606 14.5724 9.07606 14.7482 9.2518Z" fill="#323232"/>
<path fill-rule="evenodd" clip-rule="evenodd" d="M13.8001 14.5016C13.7981 14.1127 14.1137 13.8 14.4991 13.8C14.8854 13.8 15.2001 14.1123 15.2001 14.5C15.2001 14.8865 14.8866 15.2 14.5001 15.2C14.1141 15.2 13.8009 14.8874 13.8001 14.5016ZM14.1254 14.5009L13.8001 14.5032C13.8001 14.5027 13.8001 14.5022 13.8001 14.5016C13.8001 14.5011 13.8001 14.5005 13.8001 14.5H14.1248C14.125 14.5003 14.1252 14.5006 14.1254 14.5009ZM14.4991 14.7C14.4994 14.7 14.4997 14.7 14.5001 14.7C14.4997 14.7 14.4994 14.7 14.4991 14.7ZM14.7 14.4984C14.7 14.4978 14.7 14.4973 14.7 14.4967C14.6983 14.3877 14.6095 14.3 14.5001 14.3C14.4997 14.3 14.4994 14.3 14.4991 14.3C14.3891 14.3005 14.3003 14.3896 14.3001 14.4996C14.3001 14.4997 14.3001 14.4999 14.3001 14.5C14.3001 14.6117 14.3907 14.7 14.4991 14.7C14.3434 14.7 14.2062 14.621 14.1254 14.5009L14.2501 14.5H14.1248M14.7 14.4984C14.7001 14.4989 14.7001 14.4995 14.7001 14.5H14.7001L14.7 14.4967C14.7 14.4973 14.7 14.4978 14.7 14.4984Z" fill="#323232"/>
<path fill-rule="evenodd" clip-rule="evenodd" d="M8.80006 9.50162C8.79812 9.11267 9.1137 8.79999 9.49906 8.79999C9.88541 8.79999 10.2001 9.11229 10.2001 9.49999C10.2001 9.88652 9.88658 10.2 9.50006 10.2C9.11407 10.2 8.80094 9.8874 8.80006 9.50162ZM9.12544 9.50089L8.80007 9.50325C8.80006 9.50271 8.80006 9.50216 8.80006 9.50162C8.80006 9.50108 8.80006 9.50053 8.80006 9.49999H9.12483C9.12503 9.50029 9.12524 9.50059 9.12544 9.50089ZM9.49906 9.69999C9.49939 9.69999 9.49972 9.69999 9.50006 9.69999C9.49972 9.69999 9.49939 9.69999 9.49906 9.69999ZM9.70005 9.49839C9.70005 9.49784 9.70004 9.49728 9.70003 9.49673C9.69829 9.38771 9.60949 9.29999 9.50006 9.29999C9.49972 9.29999 9.49939 9.29999 9.49906 9.29999C9.38911 9.30053 9.30025 9.3896 9.30006 9.49963C9.30006 9.49975 9.30006 9.49987 9.30006 9.49999C9.30006 9.61169 9.3907 9.69999 9.49906 9.69999C9.34342 9.69999 9.20625 9.62098 9.12544 9.50089L9.25006 9.49999H9.12483M9.70005 9.49839C9.70005 9.49892 9.70006 9.49946 9.70006 9.49999H9.70007L9.70004 9.49673C9.70005 9.49729 9.70005 9.49784 9.70005 9.49839Z" fill="#323232"/>
</svg>
