<svg width="24" height="24" viewBox="0 0 24 24" fill="none" xmlns="http://www.w3.org/2000/svg">
<path fill-rule="evenodd" clip-rule="evenodd" d="M12.2975 19.0025H11.7022C11.2473 19.0025 10.806 19.1575 10.451 19.442L9.051 20.5639C8.69602 20.8483 8.2547 21.0033 7.7998 21.0033H5.99734C4.3398 21.0033 2.99609 19.6596 2.99609 18.0021V15.0008C2.99609 13.8958 3.8919 13 4.99693 13H19.0028C20.1078 13 21.0036 13.8958 21.0036 15.0008V18.0021C21.0036 19.6596 19.6599 21.0033 18.0023 21.0033H16.1999C15.745 21.0033 15.3037 20.8483 14.9487 20.5639L13.5487 19.442C13.1937 19.1575 12.7524 19.0025 12.2975 19.0025Z" stroke="white" stroke-linecap="round" stroke-linejoin="round"/>
<path d="M21.0039 15.0007V12.4742C21.0039 12.1548 20.9657 11.8366 20.89 11.5264L19.7987 7.04987C19.364 5.26668 17.7719 4.00785 15.9365 3.99609" stroke="white" stroke-linecap="round" stroke-linejoin="round"/>
<path d="M2.99609 15.0007V12.4742C2.99609 12.1548 3.03432 11.8366 3.10996 11.5264L4.2013 7.04987C4.63602 5.26668 6.2281 4.00785 8.06347 3.99609" stroke="white" stroke-linecap="round" stroke-linejoin="round"/>
<path d="M5.99728 16V17.0004" stroke="white" stroke-linecap="round" stroke-linejoin="round"/>
</svg>
