<svg width="54" height="54" viewBox="0 0 54 54" fill="none" xmlns="http://www.w3.org/2000/svg">
<path d="M22.491 14.8496H13.0387C10.809 14.8496 9 16.6586 9 18.8884V43.2131C9 45.4406 10.809 47.2496 13.0387 47.2496H29.1195C31.3493 47.2496 33.1583 45.4406 33.1583 43.2109V41.4941" stroke="white" stroke-width="1.5" stroke-linecap="round" stroke-linejoin="round"/>
<path fill-rule="evenodd" clip-rule="evenodd" d="M20.9141 38.1946L35.5594 42.1411C37.9646 42.7891 40.4374 41.3604 41.0786 38.9551L47.0996 16.3561C47.7341 13.9711 46.3054 11.4961 43.9226 10.8526L29.2774 6.90611C26.8721 6.25811 24.3994 7.68686 23.7581 10.0921L17.7371 32.6911C17.1004 35.0874 18.5201 37.5489 20.9141 38.1946V38.1946Z" stroke="white" stroke-width="1.5" stroke-linecap="round" stroke-linejoin="round"/>
<path d="M25.6504 39.4645L34.0204 8.18945" stroke="white" stroke-width="1.5" stroke-linecap="round" stroke-linejoin="round"/>
</svg>
