<svg width="24" height="24" viewBox="0 0 24 24" fill="none" xmlns="http://www.w3.org/2000/svg">
<circle cx="11.9998" cy="11.9998" r="9.00375" stroke="white" stroke-linecap="round" stroke-linejoin="round"/>
<path fill-rule="evenodd" clip-rule="evenodd" d="M11.1184 8.52124C11.2927 8.19665 11.6313 7.99414 11.9998 7.99414C12.3682 7.99414 12.7068 8.19665 12.8811 8.52124L13.6585 9.94384C13.7505 10.113 13.8895 10.2519 14.0586 10.344L15.4812 11.1213C15.8058 11.2956 16.0083 11.6343 16.0083 12.0027C16.0083 12.3711 15.8058 12.7097 15.4812 12.8841L14.0586 13.6614C13.8895 13.7535 13.7505 13.8924 13.6585 14.0616L12.8811 15.4841C12.7068 15.8087 12.3682 16.0112 11.9998 16.0112C11.6313 16.0112 11.2927 15.8087 11.1184 15.4841L10.3411 14.0616C10.249 13.8924 10.11 13.7535 9.94091 13.6614L8.51831 12.8841C8.19372 12.7097 7.99121 12.3711 7.99121 12.0027C7.99121 11.6343 8.19372 11.2956 8.51831 11.1213L9.94091 10.344C10.11 10.2519 10.249 10.113 10.3411 9.94384L11.1184 8.52124Z" stroke="white"/>
</svg>
