<svg width="54" height="54" viewBox="0 0 54 54" fill="none" xmlns="http://www.w3.org/2000/svg">
<path fill-rule="evenodd" clip-rule="evenodd" d="M47.084 35.9966V18.0011C47.084 16.3923 46.2267 14.9073 44.834 14.1041L29.2505 5.10634C27.8577 4.30309 26.1432 4.30309 24.7505 5.10634L9.16699 14.1041C7.77424 14.9073 6.91699 16.3946 6.91699 18.0011V35.9943C6.91699 37.6031 7.77424 39.0881 9.16699 39.8913L24.7505 48.8913C26.1432 49.6946 27.8577 49.6946 29.2505 48.8913L44.834 39.8936C46.2267 39.0903 47.084 37.6031 47.084 35.9966Z" stroke="white" stroke-width="1.5" stroke-linecap="round" stroke-linejoin="round"/>
<path d="M13.8828 28.418L20.6328 32.333" stroke="white" stroke-width="1.5" stroke-linecap="round" stroke-linejoin="round"/>
<path d="M7.51953 15.752L27 26.9997L46.4805 15.752" stroke="white" stroke-width="1.5" stroke-linecap="round" stroke-linejoin="round"/>
<path d="M27 49.5V27" stroke="white" stroke-width="1.5" stroke-linecap="round" stroke-linejoin="round"/>
<path d="M36.7423 21.3749L16.9648 9.60742" stroke="white" stroke-width="1.5" stroke-linecap="round" stroke-linejoin="round"/>
</svg>
