<svg width="24" height="24" viewBox="0 0 24 24" fill="none" xmlns="http://www.w3.org/2000/svg">
<path d="M18.3639 5.63604C21.8787 9.15076 21.8787 14.8492 18.3639 18.3639C14.8492 21.8787 9.15074 21.8787 5.63604 18.3639C2.12132 14.8492 2.12132 9.15074 5.63604 5.63604C9.15076 2.12132 14.8492 2.12132 18.3639 5.63604" stroke="white" stroke-linecap="round" stroke-linejoin="round"/>
<path d="M13.5 14.5C11.567 14.5 10 12.933 10 11C10 9.067 11.567 7.5 13.5 7.5C15.434 7.5 17 9.067 17 11C17 12.933 15.434 14.5 13.5 14.5" stroke="white" stroke-linecap="round" stroke-linejoin="round"/>
<path d="M10.33 9.51758C8.478 9.60758 7 11.1256 7 12.9996C7 14.9326 8.567 16.4996 10.5 16.4996C11.897 16.4996 13.093 15.6756 13.655 14.4916" stroke="white" stroke-linecap="round" stroke-linejoin="round"/>
</svg>
