<svg width="54" height="54" viewBox="0 0 54 54" fill="none" xmlns="http://www.w3.org/2000/svg">
<path d="M24.7487 47.2571H13.494C9.76455 47.2571 6.74121 44.2338 6.74121 40.5043V13.493C6.74121 9.76357 9.76455 6.74023 13.494 6.74023H40.5053C44.2347 6.74023 47.2581 9.76357 47.2581 13.493V24.7477" stroke="white" stroke-width="1.5" stroke-linecap="round" stroke-linejoin="round"/>
<path d="M44.0693 36.6089H47.2589V33.4238" stroke="white" stroke-linecap="round" stroke-linejoin="round"/>
<path d="M36.9494 43.498H33.7666V46.6831" stroke="white" stroke-linecap="round" stroke-linejoin="round"/>
<path d="M47.259 42.4531C46.9229 43.4689 46.3567 44.3933 45.6046 45.1543C42.7917 47.9665 38.2319 47.9665 35.4191 45.1543C34.9302 44.6677 34.5147 44.1127 34.1855 43.5066" stroke="white" stroke-width="1.5" stroke-linecap="round" stroke-linejoin="round"/>
<path d="M46.8351 36.6068C45.7493 34.6122 43.7864 33.2465 41.5388 32.9218C39.2912 32.597 37.0221 33.3512 35.4161 34.9568C34.6624 35.7178 34.094 36.642 33.7549 37.658" stroke="white" stroke-width="1.5" stroke-linecap="round" stroke-linejoin="round"/>
<path d="M47.2581 17.9946H6.74121" stroke="white" stroke-width="1.5" stroke-linecap="round" stroke-linejoin="round"/>
<path d="M30.937 25.7613C30.8761 25.7613 30.8267 25.8106 30.8267 25.8716C30.8267 25.9325 30.8761 25.9819 30.937 25.9819C30.9979 25.9819 31.0473 25.9325 31.0473 25.8716C31.0473 25.8106 30.9979 25.7613 30.937 25.7613" stroke="white" stroke-width="1.5" stroke-linecap="round" stroke-linejoin="round"/>
<path d="M23.0588 25.7613C23.0297 25.7613 23.0019 25.773 22.9816 25.7937C22.9612 25.8145 22.9501 25.8425 22.9507 25.8716C22.9507 25.9164 22.9779 25.9567 23.0194 25.9737C23.0608 25.9906 23.1085 25.9808 23.1398 25.9487C23.1712 25.9167 23.18 25.8689 23.1623 25.8278C23.1445 25.7867 23.1036 25.7604 23.0588 25.7613" stroke="white" stroke-width="1.5" stroke-linecap="round" stroke-linejoin="round"/>
<path d="M15.1802 25.7602C15.1504 25.7595 15.1216 25.7712 15.1007 25.7926C15.0798 25.8139 15.0687 25.8429 15.0699 25.8727C15.0699 25.9175 15.097 25.9579 15.1385 25.9748C15.18 25.9917 15.2276 25.9819 15.259 25.9499C15.2904 25.9179 15.2992 25.8701 15.2814 25.8289C15.2637 25.7878 15.2228 25.7615 15.178 25.7624" stroke="white" stroke-width="1.5" stroke-linecap="round" stroke-linejoin="round"/>
<path d="M23.0588 32.5132C23.0297 32.5132 23.0019 32.5249 22.9816 32.5457C22.9612 32.5664 22.9501 32.5945 22.9507 32.6235C22.9507 32.6684 22.9779 32.7087 23.0194 32.7256C23.0608 32.7426 23.1085 32.7327 23.1398 32.7007C23.1712 32.6687 23.18 32.6209 23.1623 32.5797C23.1445 32.5386 23.1036 32.5123 23.0588 32.5132" stroke="white" stroke-width="1.5" stroke-linecap="round" stroke-linejoin="round"/>
<path d="M15.1802 32.5141C15.1504 32.5134 15.1216 32.5251 15.1007 32.5465C15.0798 32.5678 15.0687 32.5968 15.0699 32.6266C15.0699 32.6714 15.097 32.7118 15.1385 32.7287C15.18 32.7456 15.2276 32.7358 15.259 32.7038C15.2904 32.6718 15.2992 32.624 15.2814 32.5828C15.2637 32.5417 15.2228 32.5154 15.178 32.5163" stroke="white" stroke-width="1.5" stroke-linecap="round" stroke-linejoin="round"/>
<path d="M23.0588 39.2691C23.0297 39.2691 23.0019 39.2808 22.9816 39.3015C22.9612 39.3223 22.9501 39.3504 22.9507 39.3794C22.9507 39.4242 22.9779 39.4646 23.0194 39.4815C23.0608 39.4984 23.1085 39.4886 23.1398 39.4566C23.1712 39.4245 23.18 39.3767 23.1623 39.3356C23.1445 39.2945 23.1036 39.2682 23.0588 39.2691" stroke="white" stroke-width="1.5" stroke-linecap="round" stroke-linejoin="round"/>
<path d="M15.1802 39.2691C15.1507 39.2685 15.1223 39.2799 15.1015 39.3007C15.0807 39.3215 15.0693 39.35 15.0699 39.3794C15.0699 39.4242 15.097 39.4646 15.1385 39.4815C15.18 39.4984 15.2276 39.4886 15.259 39.4566C15.2903 39.4245 15.2992 39.3767 15.2814 39.3356C15.2636 39.2945 15.2227 39.2682 15.1779 39.2691" stroke="white" stroke-width="1.5" stroke-linecap="round" stroke-linejoin="round"/>
</svg>
