<svg width="24" height="24" viewBox="0 0 24 24" fill="none" xmlns="http://www.w3.org/2000/svg">
<path d="M12 10V5" stroke="white" stroke-linecap="round" stroke-linejoin="round"/>
<path d="M12 19V14" stroke="white" stroke-linecap="round" stroke-linejoin="round"/>
<path d="M13.4102 10.5908L16.9502 7.05078" stroke="white" stroke-linecap="round" stroke-linejoin="round"/>
<path d="M7.0498 16.9502L10.5898 13.4102" stroke="white" stroke-linecap="round" stroke-linejoin="round"/>
<path d="M14 12H19" stroke="white" stroke-linecap="round" stroke-linejoin="round"/>
<path d="M5 12H10" stroke="white" stroke-linecap="round" stroke-linejoin="round"/>
<path d="M13.4102 13.4102L16.9502 16.9502" stroke="white" stroke-linecap="round" stroke-linejoin="round"/>
<path d="M7.0498 7.05078L10.5898 10.5908" stroke="white" stroke-linecap="round" stroke-linejoin="round"/>
<path d="M19.071 4.92893C22.9763 8.83417 22.9763 15.1658 19.071 19.071C15.1658 22.9763 8.83413 22.9763 4.92893 19.071C1.02369 15.1658 1.02369 8.83413 4.92893 4.92893C8.83417 1.02369 15.1658 1.02369 19.071 4.92893" stroke="white" stroke-linecap="round" stroke-linejoin="round"/>
<path d="M16.9497 7.05025C19.6834 9.78392 19.6834 14.2161 16.9497 16.9497C14.2161 19.6834 9.78392 19.6834 7.05025 16.9497C4.31658 14.2161 4.31658 9.78392 7.05025 7.05025C9.78392 4.31658 14.2161 4.31658 16.9497 7.05025" stroke="white" stroke-linecap="round" stroke-linejoin="round"/>
<path d="M13.4142 10.5858C14.1953 11.3668 14.1953 12.6332 13.4142 13.4142C12.6332 14.1953 11.3668 14.1953 10.5858 13.4142C9.80474 12.6332 9.80474 11.3668 10.5858 10.5858C11.3668 9.80474 12.6332 9.80474 13.4142 10.5858" stroke="white" stroke-linecap="round" stroke-linejoin="round"/>
</svg>
