<svg width="54" height="54" viewBox="0 0 54 54" fill="none" xmlns="http://www.w3.org/2000/svg">
<path fill-rule="evenodd" clip-rule="evenodd" d="M24.5923 46.9934V46.9934C14.2138 44.9177 6.74317 35.8049 6.74316 25.2209V18.0083C6.74316 11.8013 11.7749 6.76953 17.9819 6.76953H35.9639C42.1709 6.76953 47.2027 11.8013 47.2027 18.0083V25.2208C47.2027 35.8047 39.7323 44.9173 29.354 46.9932H29.3535C27.782 47.3076 26.1638 47.3076 24.5923 46.9934Z" stroke="white" stroke-width="2.25" stroke-linecap="round" stroke-linejoin="round"/>
<path fill-rule="evenodd" clip-rule="evenodd" d="M21.1232 27.8735L18.6981 25.4531C18.1013 24.8575 17.888 23.9781 18.1457 23.1753C18.4033 22.3725 19.0886 21.7814 19.9205 21.6443L23.1222 21.1167L25.0434 17.5127C25.4339 16.78 26.1966 16.3223 27.0269 16.3223C27.8573 16.3223 28.6199 16.78 29.0105 17.5127L30.9316 21.1167L34.1334 21.6443C34.9652 21.7814 35.6504 22.3725 35.9081 23.1753C36.1657 23.978 35.9525 24.8575 35.3558 25.4531L32.9307 27.8735L33.5133 31.7153C33.6386 32.5411 33.2955 33.3683 32.6226 33.8631C31.9497 34.358 31.058 34.4389 30.307 34.0732L27.0269 32.4762L23.7469 34.0732C22.9959 34.4388 22.1041 34.3579 21.4312 33.8631C20.7583 33.3682 20.4153 32.5411 20.5405 31.7153L21.1232 27.8735Z" stroke="white" stroke-width="2.25" stroke-linecap="round" stroke-linejoin="round"/>
</svg>
