<svg width="54" height="54" viewBox="0 0 54 54" fill="none" xmlns="http://www.w3.org/2000/svg">
<path d="M15.6963 41.6294H34.8782" stroke="white" stroke-linecap="round" stroke-linejoin="round"/>
<circle cx="38.2543" cy="41.6303" r="3.37641" stroke="white" stroke-width="1.5" stroke-linecap="round" stroke-linejoin="round"/>
<circle cx="12.3198" cy="41.6303" r="3.37641" stroke="white" stroke-width="1.5" stroke-linecap="round" stroke-linejoin="round"/>
<path d="M4.49121 31.1876H32.6279C33.2495 31.1876 33.7534 30.6837 33.7534 30.0621V15.7441C33.7534 13.2577 31.7378 11.2422 29.2515 11.2422H8.99309C6.50677 11.2422 4.49121 13.2577 4.49121 15.7441V39.3789C4.49121 40.6221 5.49899 41.6298 6.74215 41.6298H8.94415" stroke="white" stroke-width="1.5" stroke-linecap="round" stroke-linejoin="round"/>
<path d="M33.7529 15.7441H41.0608C43.4297 15.7441 45.545 17.2277 46.3517 19.4551L49.2404 27.4303C49.4184 27.9218 49.5095 28.4406 49.5095 28.9634V38.2535C49.5095 40.1183 47.9978 41.6299 46.1331 41.6299H41.6312" stroke="white" stroke-width="1.5" stroke-linecap="round" stroke-linejoin="round"/>
<path d="M49.5095 29.2509H42.7567L41.165 27.6593C40.7429 27.2372 40.1704 27 39.5734 27H33.7529" stroke="white" stroke-width="1.5" stroke-linecap="round" stroke-linejoin="round"/>
</svg>
