<svg width="24" height="24" viewBox="0 0 24 24" fill="none" xmlns="http://www.w3.org/2000/svg">
<path fill-rule="evenodd" clip-rule="evenodd" d="M5.99776 2.99609C5.99776 5.20615 4.20615 6.99776 1.99609 6.99776C4.20615 6.99776 5.99776 8.78937 5.99776 10.9994C5.99776 8.78937 7.78937 6.99776 9.99943 6.99776C7.78937 6.99776 5.99776 5.20615 5.99776 2.99609Z" stroke="#6f6f6f" stroke-linecap="round" stroke-linejoin="round"/>
<path fill-rule="evenodd" clip-rule="evenodd" d="M17.0021 15.0022C17.0021 12.2396 14.7626 10.0001 12 10.0001C14.7626 10.0001 17.0021 7.76062 17.0021 4.99805C17.0021 7.76062 19.2416 10.0001 22.0042 10.0001C19.2416 10.0001 17.0021 12.2396 17.0021 15.0022Z" stroke="#6f6f6f" stroke-linecap="round" stroke-linejoin="round"/>
<path d="M17.0022 15.002V16.0024" stroke="#6f6f6f" stroke-linecap="round" stroke-linejoin="round"/>
<path d="M17.0022 4.99846V3.99805" stroke="#6f6f6f" stroke-linecap="round" stroke-linejoin="round"/>
<path d="M9.99923 21.0039V22.0043" stroke="#6f6f6f" stroke-linecap="round" stroke-linejoin="round"/>
<path d="M9.99923 14.0024V13.002" stroke="#6f6f6f" stroke-linecap="round" stroke-linejoin="round"/>
<path d="M5.99728 11V12.0004" stroke="#6f6f6f" stroke-linecap="round" stroke-linejoin="round"/>
<path d="M5.99728 1.99609V2.99651" stroke="#6f6f6f" stroke-linecap="round" stroke-linejoin="round"/>
<path fill-rule="evenodd" clip-rule="evenodd" d="M9.99874 13.502C9.99874 15.712 8.20713 17.5036 5.99707 17.5036C8.20713 17.5036 9.99874 19.2952 9.99874 21.5053C9.99874 19.2952 11.7903 17.5036 14.0004 17.5036C11.7903 17.5036 9.99874 15.712 9.99874 13.502Z" stroke="#6f6f6f" stroke-linecap="round" stroke-linejoin="round"/>
</svg>
