<svg width="54" height="54" viewBox="0 0 54 54" fill="none" xmlns="http://www.w3.org/2000/svg">
<path fill-rule="evenodd" clip-rule="evenodd" d="M38.4576 47.2584H15.543C13.5127 47.2584 11.7344 45.8988 11.1987 43.9405L6.90167 28.1839C6.12285 25.3207 8.27699 22.498 11.246 22.498H42.7546C45.7236 22.498 47.88 25.3207 47.0989 28.1839L42.8019 43.9405C42.2661 45.8988 40.4879 47.2584 38.4576 47.2584Z" stroke="white" stroke-width="1.5" stroke-linecap="round" stroke-linejoin="round"/>
<path d="M21.3725 32.627V37.1288" stroke="white" stroke-width="1.5" stroke-linecap="round" stroke-linejoin="round"/>
<path d="M32.6274 32.627V37.1288" stroke="white" stroke-width="1.5" stroke-linecap="round" stroke-linejoin="round"/>
<path d="M42.7563 22.4982H42.754L30.3716 8.28802C28.5754 6.22616 25.3993 6.22616 23.6076 8.29252C19.4388 13.096 14.7726 18.5185 11.2454 22.4982H11.2432H11.2454H42.754" stroke="white" stroke-width="1.5" stroke-linecap="round" stroke-linejoin="round"/>
</svg>
