<svg width="24" height="24" viewBox="0 0 24 24" fill="none" xmlns="http://www.w3.org/2000/svg">
<path fill-rule="evenodd" clip-rule="evenodd" d="M17.0923 21.0026H6.90801C6.00563 21.0026 5.2153 20.3984 4.9772 19.528L3.06741 12.5251C2.72127 11.2526 3.67866 9.99805 4.99821 9.99805H19.002C20.3216 9.99805 21.28 11.2526 20.9328 12.5251L19.0231 19.528C18.785 20.3984 17.9946 21.0026 17.0923 21.0026Z" stroke="white" stroke-linecap="round" stroke-linejoin="round"/>
<path d="M9.49923 14.5V16.5008" stroke="white" stroke-linecap="round" stroke-linejoin="round"/>
<path d="M14.5012 14.5V16.5008" stroke="white" stroke-linecap="round" stroke-linejoin="round"/>
<path d="M19.0029 9.99876H19.0019L13.4986 3.68313C12.7003 2.76675 11.2887 2.76675 10.4924 3.68513C8.63959 5.82002 6.56572 8.23002 4.99807 9.99876H4.99707H4.99807H19.0019" stroke="white" stroke-linecap="round" stroke-linejoin="round"/>
</svg>
