<svg width="24" height="24" viewBox="0 0 24 24" fill="none" xmlns="http://www.w3.org/2000/svg">
<path fill-rule="evenodd" clip-rule="evenodd" d="M18.2041 5.76108C16.5581 4.11408 14.3691 3.20608 12.0371 3.20508C7.23014 3.20508 3.31914 7.11408 3.31814 11.9191C3.31614 13.4481 3.71714 14.9511 4.48114 16.2761L3.24414 20.7921L7.86614 19.5801C9.14514 20.2761 10.5771 20.6411 12.0331 20.6411H12.0371C16.8421 20.6411 20.7531 16.7311 20.7551 11.9261C20.7561 9.59808 19.8501 7.40908 18.2041 5.76108Z" stroke="white" stroke-width="1.2" stroke-linecap="round" stroke-linejoin="round"/>
<path d="M13.0947 13.5599L13.5007 13.1569C13.8737 12.7869 14.4637 12.7399 14.8937 13.0419C15.3097 13.3339 15.6857 13.5959 16.0357 13.8399C16.5917 14.2259 16.6587 15.0179 16.1797 15.4959L15.8207 15.8549" stroke="white" stroke-width="1.2" stroke-linecap="round" stroke-linejoin="round"/>
<path d="M8.14551 8.17841L8.50451 7.81941C8.98251 7.34141 9.77451 7.40841 10.1605 7.96341C10.4035 8.31341 10.6655 8.68941 10.9585 9.10541C11.2605 9.53541 11.2145 10.1254 10.8435 10.4984L10.4405 10.9044" stroke="white" stroke-width="1.2" stroke-linecap="round" stroke-linejoin="round"/>
<path d="M15.8207 15.8534C14.3397 17.3274 11.8507 16.0754 9.88574 14.1094" stroke="white" stroke-width="1.2" stroke-linecap="round" stroke-linejoin="round"/>
<path d="M9.88807 14.1127C7.92307 12.1467 6.67107 9.65873 8.14507 8.17773" stroke="white" stroke-width="1.2" stroke-linecap="round" stroke-linejoin="round"/>
<path d="M10.4404 10.9043C10.7594 11.4073 11.1684 11.9053 11.6304 12.3673L11.6324 12.3693C12.0944 12.8313 12.5924 13.2403 13.0954 13.5593" stroke="white" stroke-width="1.2" stroke-linecap="round" stroke-linejoin="round"/>
</svg>
