<svg preserveAspectRatio="none" width="100%" height="100%" overflow="visible" style="display: block;" viewBox="0 0 24 24" fill="none" xmlns="http://www.w3.org/2000/svg">
<g id="Group">
<g id="Rectangle">
</g>
<path id="Path" d="M5 11V7C5 5.34315 6.34315 4 8 4H16C17.6569 4 19 5.34315 19 7V11" stroke="var(--stroke-0, #323232)" stroke-linecap="round" stroke-linejoin="round"/>
<path id="Path_2" d="M5 19V21" stroke="var(--stroke-0, #323232)" stroke-linecap="round" stroke-linejoin="round"/>
<path id="Path_3" d="M19 19V21" stroke="var(--stroke-0, #323232)" stroke-linecap="round" stroke-linejoin="round"/>
<path id="Path_4" fill-rule="evenodd" clip-rule="evenodd" d="M5 19C3.89543 19 3 18.1046 3 17V12.5C3 11.6716 3.67157 11 4.5 11H5.5C6.32843 11 7 11.6716 7 12.5V15H17V12.5C17 11.6716 17.6716 11 18.5 11H19.5C20.3284 11 21 11.6716 21 12.5V17C21 18.1046 20.1046 19 19 19H5Z" stroke="var(--stroke-0, #323232)" stroke-linecap="round" stroke-linejoin="round"/>
</g>
</svg>
