<svg preserveAspectRatio="none" width="100%" height="100%" overflow="visible" style="display: block;" viewBox="0 0 24 24" fill="none" xmlns="http://www.w3.org/2000/svg">
<g id="Group">
<g id="Group_2">
<path id="Path" d="M12 10V5" stroke="var(--stroke-0, #323232)" stroke-linecap="round" stroke-linejoin="round"/>
<path id="Path_2" d="M12 19V14" stroke="var(--stroke-0, #323232)" stroke-linecap="round" stroke-linejoin="round"/>
<path id="Path_3" d="M13.41 10.59L16.95 7.05" stroke="var(--stroke-0, #323232)" stroke-linecap="round" stroke-linejoin="round"/>
<path id="Path_4" d="M7.05 16.95L10.59 13.41" stroke="var(--stroke-0, #323232)" stroke-linecap="round" stroke-linejoin="round"/>
<path id="Path_5" d="M14 12H19" stroke="var(--stroke-0, #323232)" stroke-linecap="round" stroke-linejoin="round"/>
<path id="Path_6" d="M5 12H10" stroke="var(--stroke-0, #323232)" stroke-linecap="round" stroke-linejoin="round"/>
<path id="Path_7" d="M13.41 13.41L16.95 16.95" stroke="var(--stroke-0, #323232)" stroke-linecap="round" stroke-linejoin="round"/>
<path id="Path_8" d="M7.05 7.05L10.59 10.59" stroke="var(--stroke-0, #323232)" stroke-linecap="round" stroke-linejoin="round"/>
<path id="Path_9" d="M19.0711 4.92893C22.9763 8.83417 22.9763 15.1658 19.0711 19.071C15.1659 22.9763 8.8342 22.9763 4.929 19.071C1.02376 15.1658 1.02376 8.83413 4.929 4.92893C8.83424 1.02369 15.1659 1.02369 19.0711 4.92893" stroke="var(--stroke-0, #323232)" stroke-linecap="round" stroke-linejoin="round"/>
<path id="Path_10" d="M16.9497 7.05025C19.6834 9.78392 19.6834 14.2161 16.9497 16.9497C14.216 19.6834 9.78388 19.6834 7.05021 16.9497C4.31654 14.2161 4.31654 9.78392 7.05021 7.05025C9.78388 4.31658 14.216 4.31658 16.9497 7.05025" stroke="var(--stroke-0, #323232)" stroke-linecap="round" stroke-linejoin="round"/>
<path id="Path_11" d="M13.4142 10.5858C14.1952 11.3668 14.1952 12.6332 13.4142 13.4142C12.6332 14.1953 11.3668 14.1953 10.5858 13.4142C9.80472 12.6332 9.80472 11.3669 10.5858 10.5858C11.3668 9.80475 12.6331 9.80475 13.4142 10.5858" stroke="var(--stroke-0, #323232)" stroke-linecap="round" stroke-linejoin="round"/>
</g>
<g id="Path_12">
</g>
</g>
</svg>
