<svg preserveAspectRatio="none" width="100%" height="100%" overflow="visible" style="display: block;" viewBox="0 0 24.01 24.01" fill="none" xmlns="http://www.w3.org/2000/svg">
<g id="Group">
<path id="Path" d="M5.00208 7.25302V8.75365" stroke="var(--stroke-0, #323232)" stroke-linecap="round" stroke-linejoin="round"/>
<g id="Rectangle">
</g>
<path id="Path_2" d="M8.50354 18.0075V21.0087" stroke="var(--stroke-0, #323232)" stroke-linecap="round" stroke-linejoin="round"/>
<path id="Path_3" fill-rule="evenodd" clip-rule="evenodd" d="M10.0042 12.005V8.00333C10.0042 5.79327 8.21256 4.00167 6.0025 4.00167H5.58333C5.19838 4.00167 4.81596 4.06376 4.45085 4.18574V4.18574C2.9877 4.67294 2.00068 6.04202 2.00083 7.58416V8.42251C1.99939 9.96575 2.98665 11.3364 4.45085 11.8239V11.8239C4.81613 11.9449 5.19855 12.006 5.58333 12.005H6.50271C6.77897 12.005 7.00291 12.229 7.00291 12.5052V17.0071C7.00291 17.5596 7.45082 18.0075 8.00333 18.0075H9.00375C9.55626 18.0075 10.0042 17.5596 10.0042 17.0071V12.005Z" stroke="var(--stroke-0, #323232)" stroke-linecap="round" stroke-linejoin="round"/>
<path id="Path_4" d="M15.5065 18.0075V21.0087" stroke="var(--stroke-0, #323232)" stroke-linecap="round" stroke-linejoin="round"/>
<path id="Path_5" fill-rule="evenodd" clip-rule="evenodd" d="M14.0058 17.0071C14.0058 17.5596 14.4537 18.0075 15.0063 18.0075H16.0067C16.5592 18.0075 17.0071 17.5596 17.0071 17.0071V12.5052C17.0071 12.229 17.231 12.005 17.5073 12.005H18.4267C18.8116 12.0051 19.194 11.9429 19.5591 11.8209V11.8209C21.0223 11.3337 22.0093 9.96464 22.0092 8.42251V7.58416C22.0106 6.04092 21.0234 4.67029 19.5591 4.18274V4.18274C19.1939 4.06177 18.8115 4.00063 18.4267 4.00165H18.0075C15.7974 4.00165 14.0058 5.79327 14.0058 8.00333V17.0071Z" stroke="var(--stroke-0, #323232)" stroke-linecap="round" stroke-linejoin="round"/>
<path id="Path_6" d="M19.0079 8.75365V7.25302" stroke="var(--stroke-0, #323232)" stroke-linecap="round" stroke-linejoin="round"/>
</g>
</svg>
