<svg preserveAspectRatio="none" width="100%" height="100%" overflow="visible" style="display: block;" viewBox="0 0 24 24" fill="none" xmlns="http://www.w3.org/2000/svg">
<g id="Group">
<path id="Path" fill-rule="evenodd" clip-rule="evenodd" d="M19 5.50005H21C21.5523 5.50005 22 5.94777 22 6.50005V7.50005C22 8.05233 21.5523 8.50005 21 8.50005H19V5.50005Z" stroke="var(--stroke-0, #323232)" stroke-linecap="round" stroke-linejoin="round"/>
<path id="Path_2" d="M14 11L13.3419 12.9743C13.1377 13.5869 12.5645 14 11.9189 14H9.5" stroke="var(--stroke-0, #323232)" stroke-linecap="round" stroke-linejoin="round"/>
<path id="Path_3" d="M14 3V11" stroke="var(--stroke-0, #323232)" stroke-linecap="round" stroke-linejoin="round"/>
<path id="Path_4" fill-rule="evenodd" clip-rule="evenodd" d="M9.073 17H3.5C2.67157 17 2 17.6716 2 18.5V19.5C2 20.3284 2.67157 21 3.5 21H9.5C10.3284 21 11 20.3284 11 19.5V19.382C11 19.1308 10.9415 18.8831 10.8292 18.6584L10.4146 17.8292C10.1605 17.321 9.64115 17 9.073 17Z" stroke="var(--stroke-0, #323232)" stroke-linecap="round" stroke-linejoin="round"/>
<path id="Path_5" d="M10.5 11L8.5 17" stroke="var(--stroke-0, #323232)" stroke-linecap="round" stroke-linejoin="round"/>
<path id="Path_6" d="M3.5 17L5.5 11" stroke="var(--stroke-0, #323232)" stroke-linecap="round" stroke-linejoin="round"/>
<path id="Path_7" d="M6 7H8.5" stroke="var(--stroke-0, #323232)" stroke-linecap="round" stroke-linejoin="round"/>
<path id="Path_8" fill-rule="evenodd" clip-rule="evenodd" d="M2 9.00339V4.99662C1.9992 4.46745 2.20882 3.95968 2.58266 3.58517C2.95651 3.21066 3.4639 3.00015 3.99307 3C7.6586 3 13.3622 3 15.3993 3C15.7927 3.00001 16.1772 3.11694 16.5039 3.33592L18.1094 4.40629C18.6658 4.77722 19 5.40166 19 6.07035V7.92962C19 8.59831 18.6658 9.22277 18.1094 9.5937L16.5039 10.6641C16.1772 10.8831 15.7927 11 15.3993 11C13.3622 11 7.65861 11 3.99308 11C3.46392 10.9999 2.95652 10.7893 2.58267 10.4148C2.20883 10.0403 1.99921 9.53255 2 9.00339Z" stroke="var(--stroke-0, #323232)" stroke-linecap="round" stroke-linejoin="round"/>
<g id="Rectangle">
</g>
</g>
</svg>
