<svg preserveAspectRatio="none" width="100%" height="100%" overflow="visible" style="display: block;" viewBox="0 0 24.01 24.01" fill="none" xmlns="http://www.w3.org/2000/svg">
<g id="Group">
<path id="Path" fill-rule="evenodd" clip-rule="evenodd" d="M7.57315 11.945L9.1338 10.0942L16.0067 8.00333L11.0046 15.0062H9.00375H5.00208L7.57315 11.945Z" stroke="var(--stroke-0, #323232)" stroke-linecap="round" stroke-linejoin="round"/>
<path id="Path_2" d="M9.00376 15.0063C9.00828 16.8883 7.70375 18.5204 5.86698 18.9308C4.0302 19.3411 2.15513 18.4193 1.35832 16.7142C0.561515 15.0091 1.05725 12.9794 2.55034 11.8336C4.04342 10.6878 6.13232 10.7341 7.57315 11.945" stroke="var(--stroke-0, #323232)" stroke-linecap="round" stroke-linejoin="round"/>
<circle id="Oval" cx="19.0079" cy="15.0063" r="4.00167" stroke="var(--stroke-0, #323232)" stroke-linecap="round" stroke-linejoin="round"/>
<path id="Path_3" d="M16.0067 6.0025L18.0075 5.00208" stroke="var(--stroke-0, #323232)" stroke-linecap="round" stroke-linejoin="round"/>
<path id="Path_4" d="M19.0079 15.0062L16.0067 6.0025" stroke="var(--stroke-0, #323232)" stroke-linecap="round" stroke-linejoin="round"/>
<path id="Path_5" d="M7.00292 7.00292H10.0042" stroke="var(--stroke-0, #323232)" stroke-linecap="round" stroke-linejoin="round"/>
<path id="Path_6" fill-rule="evenodd" clip-rule="evenodd" d="M16.0067 8.00333L11.0046 15.0062H5.00208L9.1338 10.0912L16.0067 8.00333Z" stroke="var(--stroke-0, #323232)" stroke-linecap="round" stroke-linejoin="round"/>
<path id="Path_7" d="M11.0046 15.0062L8.00333 7.00292" stroke="var(--stroke-0, #323232)" stroke-linecap="round" stroke-linejoin="round"/>
<g id="Rectangle">
</g>
</g>
</svg>
