<svg preserveAspectRatio="none" width="100%" height="100%" overflow="visible" style="display: block;" viewBox="0 0 24.01 24.01" fill="none" xmlns="http://www.w3.org/2000/svg">
<g id="Group">
<path id="Path" fill-rule="evenodd" clip-rule="evenodd" d="M12.005 15.9511C10.6692 15.0703 9.86522 13.5773 9.86522 11.9772C9.86522 10.3771 10.6692 8.88411 12.005 8.00333C13.3408 8.88411 14.1448 10.3771 14.1448 11.9772C14.1448 13.5773 13.3408 15.0703 12.005 15.9511Z" stroke="var(--stroke-0, #323232)" stroke-linecap="round" stroke-linejoin="round"/>
<path id="Path_2" d="M14.0188 10.9449C15.0625 10.3626 16.2711 10.1466 17.4518 10.3313C17.7687 11.8668 17.3063 13.4597 16.2165 14.5869C15.1267 15.7141 13.5503 16.2299 12.005 15.9651C10.4597 16.2299 8.88329 15.7141 7.79351 14.5869C6.70372 13.4597 6.24132 11.8668 6.55815 10.3313C7.73892 10.1466 8.94754 10.3626 9.99122 10.9449" stroke="var(--stroke-0, #323232)" stroke-linecap="round" stroke-linejoin="round"/>
<circle id="Oval" cx="12.005" cy="12.005" r="9.00375" stroke="var(--stroke-0, #323232)" stroke-linecap="round" stroke-linejoin="round"/>
<g id="Rectangle">
</g>
</g>
</svg>
