<svg preserveAspectRatio="none" width="100%" height="100%" overflow="visible" style="display: block;" viewBox="0 0 20 20" fill="none" xmlns="http://www.w3.org/2000/svg">
<g id="Group">
<path id="Path" fill-rule="evenodd" clip-rule="evenodd" d="M6.24667 2.5H13.7542C15.8225 2.5 17.5 4.17667 17.5 6.24667V13.7542C17.5 15.8225 15.8233 17.5 13.7533 17.5H6.24667C4.1775 17.5 2.5 15.8233 2.5 13.7533V6.24667C2.5 4.1775 4.17667 2.5 6.24667 2.5V2.5Z" stroke="var(--stroke-0, #F26522)" stroke-width="1.2" stroke-linecap="round" stroke-linejoin="round"/>
<path id="Path_2" d="M14.1242 5.59417C13.9692 5.595 13.8433 5.72083 13.8433 5.87583C13.8433 6.03083 13.97 6.15667 14.125 6.15667C14.28 6.15667 14.4058 6.03083 14.4058 5.87583C14.4067 5.72 14.28 5.59417 14.1242 5.59417" stroke="var(--stroke-0, #F26522)" stroke-width="1.2" stroke-linecap="round" stroke-linejoin="round"/>
<path id="Path_3" d="M12.1213 7.87868C13.2929 9.05026 13.2929 10.9498 12.1213 12.1213C10.9498 13.2929 9.05027 13.2929 7.87869 12.1213C6.70712 10.9498 6.70712 9.05026 7.87869 7.87868C9.05027 6.70711 10.9498 6.70711 12.1213 7.87868" stroke="var(--stroke-0, #F26522)" stroke-width="1.2" stroke-linecap="round" stroke-linejoin="round"/>
<g id="Path_4">
</g>
</g>
</svg>
