<svg preserveAspectRatio="none" width="100%" height="100%" overflow="visible" style="display: block;" viewBox="0 0 24.01 24.01" fill="none" xmlns="http://www.w3.org/2000/svg">
<g id="Group">
<g id="Path">
</g>
<path id="Path_2" d="M15.0063 11.0046V3.3514C15.0068 2.60573 15.6111 2.00139 16.3568 2.00083H16.757" stroke="var(--stroke-0, #323232)" stroke-linecap="round" stroke-linejoin="round"/>
<path id="Path_3" d="M9.00375 11.0046V3.3514C9.0043 2.60573 9.60865 2.00139 10.3543 2.00083H10.7545" stroke="var(--stroke-0, #323232)" stroke-linecap="round" stroke-linejoin="round"/>
<path id="Path_4" d="M9.00375 9.50396H15.0062" stroke="var(--stroke-0, #323232)" stroke-linecap="round" stroke-linejoin="round"/>
<path id="Path_5" d="M9.00375 6.0025H15.0062" stroke="var(--stroke-0, #323232)" stroke-linecap="round" stroke-linejoin="round"/>
<path id="Path_6" d="M6.0025 6.0025C4.34496 6.0025 3.00125 7.34621 3.00125 9.00375V18.0075C3.00125 19.665 4.34496 21.0088 6.0025 21.0088H18.0075C19.665 21.0088 21.0087 19.665 21.0087 18.0075V9.00375C21.0087 7.34621 19.665 6.0025 18.0075 6.0025" stroke="var(--stroke-0, #323232)" stroke-linecap="round" stroke-linejoin="round"/>
<path id="Path_7" d="M6.60275 13.8738C7.74924 14.3831 9.05777 14.3831 10.2043 13.8738C11.3507 13.3645 12.6593 13.3645 13.8058 13.8738C14.9522 14.3831 16.2608 14.3831 17.4073 13.8738" stroke="var(--stroke-0, #323232)" stroke-linecap="round" stroke-linejoin="round"/>
<path id="Path_8" d="M6.60275 17.3892C7.74924 17.8985 9.05777 17.8985 10.2043 17.3892C11.3507 16.88 12.6593 16.88 13.8058 17.3892C14.9522 17.8985 16.2608 17.8985 17.4073 17.3892" stroke="var(--stroke-0, #323232)" stroke-linecap="round" stroke-linejoin="round"/>
</g>
</svg>
