<svg preserveAspectRatio="none" width="100%" height="100%" overflow="visible" style="display: block;" viewBox="0 0 20 20" fill="none" xmlns="http://www.w3.org/2000/svg">
<g id="Group">
<g id="Path">
</g>
<path id="Path_2" fill-rule="evenodd" clip-rule="evenodd" d="M15.17 4.80167C13.7983 3.42917 11.9742 2.6725 10.0308 2.67167C6.025 2.67167 2.76583 5.92917 2.765 9.93333C2.76333 11.2075 3.0975 12.46 3.73417 13.5642L2.70333 17.3275L6.555 16.3175C7.62083 16.8975 8.81417 17.2017 10.0275 17.2017H10.0308C14.035 17.2017 17.2942 13.9433 17.2958 9.93917C17.2967 7.99917 16.5417 6.175 15.17 4.80167Z" stroke="var(--stroke-0, #F26522)" stroke-width="1.2" stroke-linecap="round" stroke-linejoin="round"/>
<g id="Group_2">
<path id="Path_3" d="M10.9125 11.3L11.2508 10.9642C11.5617 10.6558 12.0533 10.6167 12.4117 10.8683C12.7583 11.1117 13.0717 11.33 13.3633 11.5333C13.8267 11.855 13.8825 12.515 13.4833 12.9133L13.1842 13.2125" stroke="var(--stroke-0, #F26522)" stroke-width="1.2" stroke-linecap="round" stroke-linejoin="round"/>
<path id="Path_4" d="M6.7875 6.81583L7.08667 6.51667C7.485 6.11833 8.145 6.17417 8.46667 6.63667C8.66917 6.92833 8.8875 7.24167 9.13167 7.58833C9.38333 7.94667 9.345 8.43833 9.03583 8.74917L8.7 9.0875" stroke="var(--stroke-0, #F26522)" stroke-width="1.2" stroke-linecap="round" stroke-linejoin="round"/>
<path id="Path_5" d="M13.1842 13.2125C11.95 14.4408 9.87583 13.3975 8.23833 11.7592" stroke="var(--stroke-0, #F26522)" stroke-width="1.2" stroke-linecap="round" stroke-linejoin="round"/>
<path id="Path_6" d="M8.24 11.7617C6.6025 10.1233 5.55917 8.05 6.7875 6.81583" stroke="var(--stroke-0, #F26522)" stroke-width="1.2" stroke-linecap="round" stroke-linejoin="round"/>
<path id="Path_7" d="M8.7 9.0875C8.96583 9.50667 9.30667 9.92167 9.69167 10.3067L9.69333 10.3083C10.0783 10.6933 10.4933 11.0342 10.9125 11.3" stroke="var(--stroke-0, #F26522)" stroke-width="1.2" stroke-linecap="round" stroke-linejoin="round"/>
</g>
</g>
</svg>
