<svg preserveAspectRatio="none" width="100%" height="100%" overflow="visible" style="display: block;" viewBox="0 0 24.01 24.01" fill="none" xmlns="http://www.w3.org/2000/svg">
<g id="Group">
<path id="Path" fill-rule="evenodd" clip-rule="evenodd" d="M4.00167 10.5044H16.0067C16.5592 10.5044 17.0071 10.9523 17.0071 11.5048V14.506C17.0071 17.8211 14.3197 20.5085 11.0046 20.5085H9.00375C5.68866 20.5085 3.00125 17.8211 3.00125 14.506V11.5048C3.00125 10.9523 3.44915 10.5044 4.00167 10.5044Z" stroke="var(--stroke-0, #323232)" stroke-linecap="round" stroke-linejoin="round"/>
<path id="Path_2" d="M13.5056 7.50312C12.8387 6.80283 12.8387 5.70238 13.5056 5.00208C14.1726 4.30179 14.1726 3.20133 13.5056 2.50104" stroke="var(--stroke-0, #323232)" stroke-linecap="round" stroke-linejoin="round"/>
<path id="Path_3" d="M10.0042 7.50312C9.33723 6.80283 9.33723 5.70238 10.0042 5.00208C10.6711 4.30179 10.6711 3.20134 10.0042 2.50104" stroke="var(--stroke-0, #323232)" stroke-linecap="round" stroke-linejoin="round"/>
<path id="Path_4" d="M6.5027 7.50312C5.83576 6.80284 5.83576 5.70237 6.5027 5.00208C7.16965 4.30179 7.16965 3.20134 6.5027 2.50104" stroke="var(--stroke-0, #323232)" stroke-linecap="round" stroke-linejoin="round"/>
<path id="Path_5" d="M16.1345 17.6223L17.9811 17.1997C19.7526 16.7943 21.0087 15.2183 21.0087 13.4009V13.4009C21.0087 12.6327 20.7036 11.896 20.1604 11.3528C19.6172 10.8095 18.8804 10.5044 18.1122 10.5044H15.5065" stroke="var(--stroke-0, #323232)" stroke-linecap="round" stroke-linejoin="round"/>
<g id="Path_6">
</g>
</g>
</svg>
